HIERARCHY
ROOT Hips
{
	OFFSET 0.00000 0.00000 0.00000
	CHANNELS 6 Xposition Yposition Zposition Zrotation Yrotation Xrotation 
	JOINT LHipJoint
	{
		OFFSET 0 0 0
		CHANNELS 3 Zrotation Yrotation Xrotation
		JOINT LeftHip
		{
			OFFSET 1.28858 -1.83292 1.03970
			CHANNELS 3 Zrotation Yrotation Xrotation
			JOINT LeftKnee
			{
				OFFSET 2.47846 -6.80952 0.00000
				CHANNELS 3 Zrotation Yrotation Xrotation
				JOINT LeftAnkle
				{
					OFFSET 2.75274 -7.56311 0.00000
					CHANNELS 3 Zrotation Yrotation Xrotation
					JOINT LeftToe
					{
						OFFSET 0.12848 -0.35301 1.68223
						CHANNELS 3 Zrotation Yrotation Xrotation
						End Site
						{
							OFFSET 0.00000 -0.00000 0.87311
						}
					}
				}
			}
		}
	}
	JOINT RHipJoint
	{
		OFFSET 0 0 0
		CHANNELS 3 Zrotation Yrotation Xrotation
		JOINT RightHip
		{
			OFFSET -1.31183 -1.83292 1.03970
			CHANNELS 3 Zrotation Yrotation Xrotation
			JOINT RightKnee
			{
				OFFSET -2.44740 -6.72417 0.00000
				CHANNELS 3 Zrotation Yrotation Xrotation
				JOINT RightAnkle
				{
					OFFSET -2.67343 -7.34519 0.00000
					CHANNELS 3 Zrotation Yrotation Xrotation
					JOINT RightToe
					{
						OFFSET -0.16914 -0.46471 1.77626
						CHANNELS 3 Zrotation Yrotation Xrotation
						End Site
						{
							OFFSET -0.00000 -0.00000 0.92777
						}
					}
				}
			}
		}
	}
	JOINT lowerback
	{
		OFFSET 0 0 0
		CHANNELS 3 Zrotation Yrotation Xrotation
		JOINT Chest
		{
			OFFSET 0.01249 2.14252 0.03842
			CHANNELS 3 Zrotation Yrotation Xrotation
			JOINT Chest2
			{
				OFFSET -0.02957 2.14199 -0.03751
				CHANNELS 3 Zrotation Yrotation Xrotation
				JOINT lowerneck
				{
					OFFSET 0 0 0
					CHANNELS 3 Zrotation Yrotation Xrotation
					JOINT Neck
					{
						OFFSET -0.01678 1.65709 -0.05476
						CHANNELS 3 Zrotation Yrotation Xrotation
						JOINT Head
						{
							OFFSET 0.07912 1.58331 -0.11843
							CHANNELS 3 Zrotation Yrotation Xrotation
							End Site
							{
								OFFSET 0.03298 1.73940 -0.04271
							}
						}
					}
				}
				JOINT LeftCollar
				{
					OFFSET 0 0 0
					CHANNELS 3 Zrotation Yrotation Xrotation
					JOINT LeftShoulder
					{
						OFFSET 3.39556 1.16496 0.08673
CHANNELS 3 Zrotation Xrotation Yrotation
						JOINT LeftElbow
						{
OFFSET 0 -5.239100 -0.000000
CHANNELS 3 Zrotation Xrotation Yrotation
							JOINT LeftWrist
							{
OFFSET 0 -3.314670 0.000000
CHANNELS 3 Zrotation Xrotation Yrotation
								JOINT lhand
								{
									OFFSET 0 0 0
CHANNELS 3 Zrotation Xrotation Yrotation
									JOINT LFingers
									{
OFFSET 0 -0.965900 0.000000
CHANNELS 3 Zrotation Xrotation Yrotation
										End Site
										{
OFFSET 0 -0.778730 0.000000
										}
									}
								}
								JOINT LThumb
								{
OFFSET 0 0.000000 0.000000
CHANNELS 3 Zrotation Xrotation Yrotation
									End Site
									{
OFFSET 0 -0.790620 0.790620
									}
								}
							}
						}
					}
				}
				JOINT RightCollar
				{
					OFFSET 0 0 0
					CHANNELS 3 Zrotation Yrotation Xrotation
					JOINT RightShoulder
					{
						OFFSET -3.27193 1.31331 0.33940
CHANNELS 3 Zrotation Xrotation Yrotation
						JOINT RightElbow
						{
OFFSET 0 -5.302520 0.000000
CHANNELS 3 Zrotation Xrotation Yrotation
							JOINT RightWrist
							{
OFFSET 0 -3.678750 0.000000
CHANNELS 3 Zrotation Xrotation Yrotation
								JOINT rhand
								{
									OFFSET 0 0 0
CHANNELS 3 Zrotation Xrotation Yrotation
									JOINT RFingers
									{
OFFSET 0 -0.594810 0.000000
CHANNELS 3 Zrotation Xrotation Yrotation
										End Site
										{
OFFSET 0 -0.479550 0.000000
										}
									}
								}
								JOINT RThumb
								{
OFFSET 0 0.000000 0.000000
CHANNELS 3 Zrotation Xrotation Yrotation
									End Site
									{
OFFSET 0 -0.486870 0.486870
									}
								}
							}
						}
					}
				}
			}
		}
	}
}
MOTION
Frames: 11
Frame Time: 0.008333333333333333
10.957175 2.457054 6.232951 -181.446005 -1.013382 56.992204 0.000000 0.000000 0.000000 31.245981 21.843368 -62.387643 4.763982 13.110851 39.788548 0.012015 -0.982460 -1.961831 4.895744 13.264606 40.368732 0.000000 0.000000 0.000000 -39.297082 -9.693095 -58.640904 -2.101506 -9.071643 26.021582 0.723743 -15.058488 -8.157765 -0.827211 -5.778782 16.150120 1.790792 -0.659184 27.600583 -3.909708 2.039050 13.592269 -5.850617 2.755457 0.185913 -0.038837 -1.903762 1.796686 1.306964 -1.994461 14.721152 0.403330 -0.531889 4.405539 0.000000 0.000000 0.000000 98.593929 -69.383944 24.648411 93.743079 -59.936287 63.240705 50.434703 -38.360460 37.597263 0.000000 0.000000 0.000000 -7.125000 0.000000 0.000000 8.018567 -20.007258 10.353673 0.000000 0.000000 0.000000 -69.338835 -67.419279 -18.596918 -109.431155 -58.494972 -76.740153 -38.989471 33.565859 43.480056 0.000000 0.000000 0.000000 7.125000 0.000000 0.000000 -2.578998 80.632410 2.142525
10.948550 2.203833 6.081573 -182.721274 0.788367 60.800954 0.000000 0.000000 0.000000 32.536249 22.804232 -61.673577 5.295887 13.707348 42.081728 0.020801 -1.034471 -2.549147 4.964485 13.343410 40.668519 0.000000 0.000000 0.000000 -35.785000 -9.289608 -58.613802 -2.471020 -9.781886 28.275846 0.675091 -14.392063 -6.026320 -0.602800 -4.969809 13.822450 4.238521 -0.918970 26.534998 -3.548373 2.287481 13.821622 -6.857917 3.023150 1.045009 -0.165323 -2.195132 -0.183606 1.183042 -2.200710 18.653654 0.346322 -0.465704 5.669300 0.000000 0.000000 0.000000 87.662702 -67.487406 9.210036 89.111714 -59.993201 59.230737 47.648362 -33.721458 32.787261 0.000000 0.000000 0.000000 -7.125000 0.000000 0.000000 8.265066 -13.323108 10.025242 0.000000 0.000000 0.000000 -57.700541 -66.714402 -5.066480 -99.798150 -59.596205 -68.471541 -37.439723 32.722267 41.737096 0.000000 0.000000 0.000000 7.125000 0.000000 0.000000 -1.356086 78.305894 1.046737
10.948476 1.960839 5.945092 -182.832593 1.009493 64.895026 0.000000 0.000000 0.000000 31.879451 22.952277 -60.762807 5.738585 14.169173 43.921378 0.046290 -1.379968 -3.812515 4.780836 13.132435 39.866500 0.000000 0.000000 0.000000 -34.242762 -9.536241 -58.903648 -2.891934 -10.515417 30.665076 0.643892 -14.065768 -4.452739 -0.641823 -5.124169 14.263247 3.964251 -0.911289 25.681232 -3.446758 2.214443 13.752073 -6.522651 2.947202 1.330233 0.351027 -2.233347 -0.993108 -0.049986 -1.866849 21.189226 -0.107517 -0.208465 6.592902 0.000000 0.000000 0.000000 76.841841 -66.833361 -4.724874 79.276836 -59.516441 50.731778 46.179038 -27.211399 26.087917 0.000000 0.000000 0.000000 -7.125000 0.000000 0.000000 9.419224 -4.842519 10.292503 0.000000 0.000000 0.000000 -46.232067 -65.943610 7.746742 -88.819427 -59.949792 -58.978617 -35.800037 31.618367 41.615735 0.000000 0.000000 0.000000 7.125000 0.000000 0.000000 2.052263 77.572817 -1.575715
10.960511 1.759053 5.839391 -183.182165 2.076347 69.424337 0.000000 0.000000 0.000000 31.955236 23.417478 -60.199559 6.125145 14.547676 45.480357 0.066638 -1.309262 -4.591032 4.512567 12.811566 38.669289 0.000000 0.000000 0.000000 -31.914718 -9.576599 -59.391730 -3.342640 -11.227004 33.053017 0.633733 -14.023759 -3.538093 -0.894147 -5.989144 16.763740 4.224481 -0.897959 24.376783 -2.924712 2.152350 13.558412 -6.020653 2.831758 1.696574 -0.765411 -2.183977 -2.165358 0.473816 -1.534511 23.983056 0.292780 0.073328 7.736341 0.000000 0.000000 0.000000 65.305646 -66.477954 -17.644881 67.755448 -57.990509 40.871246 45.641067 -20.578298 18.522898 0.000000 0.000000 0.000000 -7.125000 0.000000 0.000000 10.949158 4.794835 10.140738 0.000000 0.000000 0.000000 -35.465287 -64.701302 19.040652 -76.586438 -59.253917 -48.416167 -34.143396 30.024499 42.478637 0.000000 0.000000 0.000000 7.125000 0.000000 0.000000 6.812980 77.794824 -5.215524
10.984165 1.583439 5.767797 -183.580391 3.939768 74.880628 0.000000 0.000000 0.000000 32.566905 24.203400 -60.460182 6.447388 14.848010 46.751292 0.071225 -0.714623 -4.841022 4.418788 12.697479 38.246749 0.000000 0.000000 0.000000 -28.956678 -9.442853 -60.615262 -3.810986 -11.904107 35.394116 0.655792 -14.402098 -2.589207 -1.162619 -6.844915 19.256795 5.270937 -0.740215 22.153548 -2.307973 2.301019 13.302064 -5.871085 2.839094 2.515654 -0.918419 -2.168777 -3.231543 0.824703 -1.336498 26.045950 0.473797 0.318900 8.637690 0.000000 0.000000 0.000000 54.433677 -66.420822 -28.882075 57.140081 -55.449640 31.984226 47.977886 -25.581353 19.848104 0.000000 0.000000 0.000000 -7.125000 0.000000 0.000000 12.034240 2.181003 11.834442 0.000000 0.000000 0.000000 -26.241118 -62.912388 27.038782 -65.202562 -57.500322 -38.710521 -31.512005 27.131195 43.915373 0.000000 0.000000 0.000000 7.125000 0.000000 0.000000 14.888607 78.105908 -11.543183
11.002266 1.473874 5.757615 -184.074723 6.007330 81.318203 0.000000 0.000000 0.000000 33.226763 25.748881 -61.099283 6.650421 15.030132 47.539042 0.060124 0.009883 -4.636356 4.087170 12.267159 36.695885 0.000000 0.000000 0.000000 -26.459509 -8.226923 -61.437499 -3.899728 -12.025793 35.823276 0.725365 -15.305203 -1.853414 -1.137911 -6.773672 19.046809 6.353503 -0.204336 18.947831 -1.574537 2.670348 12.549694 -5.625015 2.852564 3.345107 0.724659 -2.094297 -0.705436 -0.677552 -1.038118 24.050961 -0.291303 0.437214 7.473623 0.000000 0.000000 0.000000 42.233896 -65.728004 -39.907654 47.809466 -52.013083 24.451618 45.061225 -24.149453 15.391581 0.000000 0.000000 0.000000 -7.125000 0.000000 0.000000 11.257621 8.961682 9.565389 0.000000 0.000000 0.000000 -18.175197 -60.303058 33.018059 -54.896903 -54.724910 -30.147148 -32.046005 25.231827 45.180077 0.000000 0.000000 0.000000 7.125000 0.000000 0.000000 17.511227 79.433832 -14.084801
11.008213 1.472756 5.723890 -183.506861 7.707174 87.150498 0.000000 0.000000 0.000000 33.097114 26.726147 -61.975461 6.971751 15.306975 48.765550 0.029327 0.504474 -3.397205 3.677814 11.710964 34.727451 0.000000 0.000000 0.000000 -24.334308 -8.028345 -61.609105 -4.123563 -12.320027 36.878117 0.643791 -15.136886 0.376978 -1.013603 -6.402481 17.957791 7.209202 0.045768 15.547431 -0.911014 2.582877 11.949071 -5.245315 2.677363 4.436292 1.166217 -2.195455 0.472479 -1.381888 -0.844077 24.294634 -0.571630 0.600827 7.339952 0.000000 0.000000 0.000000 30.079670 -64.025768 -49.132353 39.993342 -48.027823 18.446289 44.238389 -25.315631 11.792186 0.000000 0.000000 0.000000 -7.125000 0.000000 0.000000 11.528834 13.954682 8.594266 0.000000 0.000000 0.000000 -11.389367 -57.183681 37.055125 -46.002743 -51.209437 -23.029920 -33.519043 23.209998 45.221395 0.000000 0.000000 0.000000 7.125000 0.000000 0.000000 14.731117 80.085499 -12.007129
10.997515 1.544987 5.576958 -182.571731 8.272915 90.033128 0.000000 0.000000 0.000000 32.622248 26.526024 -60.520875 7.408856 15.666030 50.403009 -0.021723 2.628194 -1.113385 4.258989 12.496737 37.513532 0.000000 0.000000 0.000000 -22.652073 -8.693954 -60.396524 -4.732141 -13.072147 39.645078 0.442365 -14.623261 3.983142 -1.396957 -7.461326 21.096702 7.364150 -0.115547 14.127360 -0.630144 2.331678 12.537686 -4.911163 2.654725 5.803140 0.831549 -2.215578 0.330654 -0.913728 -0.711089 25.455296 -0.337599 0.779947 7.761874 0.000000 0.000000 0.000000 19.246216 -62.182428 -55.523397 33.595843 -43.735986 13.848629 43.148951 -28.113666 10.307334 0.000000 0.000000 0.000000 -7.125000 0.000000 0.000000 11.108955 16.150967 7.728794 0.000000 0.000000 0.000000 -5.685710 -54.717427 38.964657 -38.606091 -47.167687 -17.426097 -34.914317 21.902591 46.041807 0.000000 0.000000 0.000000 7.125000 0.000000 0.000000 14.562459 81.392536 -12.247593
10.987237 1.633879 5.392634 -181.839439 8.502742 92.127225 0.000000 0.000000 0.000000 32.454480 26.078644 -57.774199 7.609847 15.824581 51.144779 -0.106984 6.848323 1.439474 4.700872 13.020718 39.477207 0.000000 0.000000 0.000000 -21.527578 -8.952795 -58.135473 -5.150243 -13.550569 41.467047 0.464187 -16.932792 6.616763 -2.494825 -9.807258 28.373295 7.652126 -0.214171 14.265802 -0.660583 2.331834 12.764056 -5.097796 2.738702 6.000736 0.443425 -2.417963 0.704788 -0.205584 -0.825283 26.584159 -0.020189 0.890018 8.087427 0.000000 0.000000 0.000000 10.025022 -59.341962 -60.116697 28.300354 -39.367434 10.322993 42.977367 -31.473781 9.742720 0.000000 0.000000 0.000000 -7.125000 0.000000 0.000000 11.101033 16.924461 7.532247 0.000000 0.000000 0.000000 -0.678547 -51.549352 39.191884 -32.583515 -42.983779 -13.145504 -36.459953 20.813488 46.727683 0.000000 0.000000 0.000000 7.125000 0.000000 0.000000 13.738104 82.656020 -11.892507
10.975044 1.719336 5.183043 -181.167870 9.074259 94.040177 0.000000 0.000000 0.000000 33.197952 25.423111 -54.644799 7.605754 15.821410 51.129803 -0.163272 11.247155 5.069730 5.586788 14.015580 43.299921 0.000000 0.000000 0.000000 -20.360565 -8.856452 -55.556597 -5.461327 -13.884356 42.777839 0.576753 -19.827510 8.483243 -3.320552 -11.194261 32.940794 8.100871 -0.502914 15.016156 -0.594445 2.256707 13.329877 -5.270005 2.871717 6.250117 0.551056 -2.541178 0.218221 -0.410999 -0.923355 26.893341 -0.112869 0.838822 8.278164 0.000000 0.000000 0.000000 3.142677 -56.826760 -61.321885 24.034287 -35.173627 7.737530 44.362471 -34.038569 10.224311 0.000000 0.000000 0.000000 -7.125000 0.000000 0.000000 11.926236 16.008924 8.367429 0.000000 0.000000 0.000000 3.048079 -49.471745 39.224421 -27.974204 -39.062362 -10.118843 -39.312109 20.335361 48.157170 0.000000 0.000000 0.000000 7.125000 0.000000 0.000000 12.690725 85.150865 -11.577036
10.968398 1.782280 4.932390 -180.494267 8.779995 95.030561 0.000000 0.000000 0.000000 33.721721 23.720211 -50.476235 7.432893 15.684596 50.491145 -0.191288 13.920522 7.212557 5.482939 13.816977 42.684572 0.000000 0.000000 0.000000 -20.379825 -8.895378 -52.643541 -5.870761 -14.301418 44.459851 0.529677 -21.539321 10.712387 -3.040168 -10.758250 31.470499 7.628191 -0.981156 17.034575 -0.803133 2.152640 14.297715 -5.247358 3.048041 6.246468 0.687863 -2.501737 -0.426009 -0.460647 -0.986498 26.479381 -0.170529 0.739527 8.247772 0.000000 0.000000 0.000000 -1.179594 -54.512947 -61.195346 20.892962 -31.696166 5.996891 45.546296 -35.729172 10.226358 0.000000 0.000000 0.000000 -7.125000 0.000000 0.000000 12.708022 15.761830 9.004547 0.000000 0.000000 0.000000 5.986635 -47.890783 39.116084 -24.131306 -35.289321 -7.788075 -42.298894 20.332518 48.460282 0.000000 0.000000 0.000000 7.125000 0.000000 0.000000 0.707562 86.742718 -0.665556
